<?xml version="1.0" encoding="UTF-8"?>
<!DOCTYPE svg PUBLIC "-//W3C//DTD SVG 1.1//EN" "http://www.w3.org/Graphics/SVG/1.1/DTD/svg11.dtd">
<!-- Creator: CorelDRAW 2018 (64-Bit) -->
<svg xmlns="http://www.w3.org/2000/svg" xml:space="preserve" width="155.641mm" height="177.108mm" version="1.1" style="shape-rendering:geometricPrecision; text-rendering:geometricPrecision; image-rendering:optimizeQuality; fill-rule:evenodd; clip-rule:evenodd"
viewBox="0 0 15562.26 17708.74"
 xmlns:xlink="http://www.w3.org/1999/xlink">
 <defs>
  <style type="text/css">
   <![CDATA[
    .str1 {stroke:#0F2336;stroke-width:99.99;stroke-miterlimit:10}
    .str0 {stroke:#0E1E2E;stroke-width:49.99;stroke-miterlimit:10}
    .fil1 {fill:#E34F26}
    .fil3 {fill:#EBEBEB}
    .fil2 {fill:#EF652A}
    .fil4 {fill:white}
    .fil0 {fill:#0A1826;fill-rule:nonzero}
    .fil5 {fill:#0E1E2E;fill-rule:nonzero}
    .fil6 {fill:#0F2336;fill-rule:nonzero}
   ]]>
  </style>
 </defs>
 <g id="Слой_x0020_1">
  <metadata id="CorelCorpID_0Corel-Layer"/>
  <path class="fil0" d="M38.59 35.27l0 -35.27 -38.59 0 3.45 38.43 35.14 -3.16zm15485.17 0l35.14 3.1 3.37 -38.37 -38.51 0 0 35.27zm-1396.71 15876.21l9.44 33.99 23.56 -6.53 2.15 -24.37 -35.15 -3.09zm-6345.88 1760.65l-9.47 33.99 9.45 2.63 9.45 -2.62 -9.43 -34zm-6315.51 -1760.65l-35.14 3.16 2.19 24.28 23.48 6.54 9.47 -33.98zm-1427.07 -15840.94l15485.17 0 0 -70.54 -15485.17 0 0 70.54zm15450.02 -38.37l-1396.7 15876.21 70.28 6.18 1396.7 -15876.2 -70.28 -6.19zm-1370.99 15845.32l-6345.88 1760.65 18.86 67.98 6345.89 -1760.66 -18.87 -67.97zm-6326.97 1760.66l-6315.52 -1760.65 -18.94 67.95 6315.51 1760.66 18.95 -67.96zm-6289.86 -1729.83l-1427.07 -15876.2 -70.27 6.31 1427.07 15876.21 70.27 -6.32z"/>
  <polygon class="fil1" points="4094.54,12929.81 3270.02,3739.01 12292.31,3739.01 11465.37,12934.22 7798.8,13968.39 "/>
  <polygon class="fil2" points="7781.17,4473.33 11455.73,4473.33 10803.17,12344.24 7781.17,13155.54 "/>
  <path class="fil3" d="M7781.17 12015.9l-2331.82 -626.69 -154.91 -1782.89 1143.29 0 79.36 891.71 1264.08 343.92 0 1173.95zm-2538.28 -2981.74l-296.2 -3429.86 2834.47 0 0 1130.97 -1586.02 0 97 1153.57 1489.02 0 0 1145.32 -2538.28 0z"/>
  <path class="fil4" d="M7781.17 7888.84l5.56 0 2616.88 0 -318.49 3500.37 -2303.39 626.54 -0.56 0.15 0 -1173.95 1.99 -0.55 1247.19 -343.37 123.46 -1463.86 -1368.46 0 -4.17 0 0 -1145.32zm0 -2284.54l8.33 0 2818.66 0 -100.33 1130.97 -2719.7 0 -6.96 0 0 -1130.97z"/>
  <path class="fil5 str0" d="M1053.26 1160.39l-33.53 0 3 33.39 1240.05 13795.6 1.9 21.1 20.4 5.68 5487.86 1529.92 8.21 2.28 8.21 -2.27 5514.25 -1529.92 20.47 -5.67 1.87 -21.18 1213.66 -13795.59 2.93 -33.34 -33.46 0 -13455.81 0zm33.54 61.29l13388.8 0 -1208.87 13741.1 -5485.54 1521.95 -5459.24 -1521.93 -1235.15 -13741.12zm1206.51 13764.96l-8.23 29.52 8.23 -29.52z"/>
  <path class="fil6 str1" d="M2230.67 2506.86l-27.67 0 2.48 27.55 1023.03 11381.31 1.57 17.41 16.83 4.69 4527.45 1262.17 6.78 1.89 6.77 -1.88 4549.23 -1262.17 16.89 -4.69 1.55 -17.47 1001.25 -11381.3 2.42 -27.51 -27.61 0 -11100.97 0zm27.67 50.57l11045.69 0 -997.3 11336.35 -4525.54 1255.6 -4503.86 -1255.59 -1018.99 -11336.36zm995.37 11356.01l0 0.01 -25.19 2.26 25.19 -2.27zm9076.68 0l25.2 2.22 -25.2 -2.21 0 -0.01z"/>
 </g>
</svg>
